<?xml version="1.0" standalone="no"?>
<!DOCTYPE svg PUBLIC "-//W3C//DTD SVG 20010904//EN"
 "http://www.w3.org/TR/2001/REC-SVG-20010904/DTD/svg10.dtd">
<svg version="1.0" xmlns="http://www.w3.org/2000/svg"
 width="128.000000pt" height="128.000000pt" viewBox="0 0 128.000000 128.000000"
 preserveAspectRatio="xMidYMid meet">
<metadata>
Created by potrace 1.14, written by Peter Selinger 2001-2017
</metadata>
<g transform="translate(0.000000,128.000000) scale(0.100000,-0.100000)"
fill="#000000" stroke="none">
<path d="M408 1229 c-68 -18 -118 -83 -118 -152 0 -38 29 -82 60 -92 18 -6 15
-12 -30 -63 -99 -110 -139 -247 -97 -328 19 -36 79 -91 114 -105 25 -9 25 -10
-18 -32 -79 -41 -93 -111 -34 -167 71 -67 174 -55 212 25 20 41 17 43 174 -83
136 -108 238 -177 286 -193 46 -15 73 8 73 62 0 42 -53 320 -70 363 -15 40
-13 45 17 42 107 -12 169 105 101 188 -22 26 -40 38 -69 42 l-40 7 7 51 c23
150 -5 261 -82 324 -66 55 -179 58 -298 8 -48 -20 -48 -20 -43 2 4 21 -14 61
-39 84 -23 20 -69 28 -106 17z"/>
</g>
</svg>
